<?xml version="1.0" encoding="UTF-8" standalone="no"?>
<!-- Created with Inkscape (http://www.inkscape.org/) -->

<svg
   xmlns:dc="http://purl.org/dc/elements/1.1/"
   xmlns:cc="http://creativecommons.org/ns#"
   xmlns:rdf="http://www.w3.org/1999/02/22-rdf-syntax-ns#"
   xmlns:svg="http://www.w3.org/2000/svg"
   xmlns="http://www.w3.org/2000/svg"
   xmlns:sodipodi="http://sodipodi.sourceforge.net/DTD/sodipodi-0.dtd"
   xmlns:inkscape="http://www.inkscape.org/namespaces/inkscape"
   width="210mm"
   height="297mm"
   viewBox="0 0 210 297"
   version="1.1"
   id="svg8"
   inkscape:version="0.92.3 (2405546, 2018-03-11)"
   sodipodi:docname="icons.svg">
  <defs
     id="defs2" />
  <sodipodi:namedview
     id="base"
     pagecolor="#ffffff"
     bordercolor="#666666"
     borderopacity="1.0"
     inkscape:pageopacity="0.0"
     inkscape:pageshadow="2"
     inkscape:zoom="0.7"
     inkscape:cx="174.01458"
     inkscape:cy="856.05322"
     inkscape:document-units="mm"
     inkscape:current-layer="layer1"
     showgrid="false"
     inkscape:window-width="1920"
     inkscape:window-height="1025"
     inkscape:window-x="384"
     inkscape:window-y="1467"
     inkscape:window-maximized="1" />
  <metadata
     id="metadata5">
    <rdf:RDF>
      <cc:Work
         rdf:about="">
        <dc:format>image/svg+xml</dc:format>
        <dc:type
           rdf:resource="http://purl.org/dc/dcmitype/StillImage" />
        <dc:title></dc:title>
      </cc:Work>
    </rdf:RDF>
  </metadata>
  <g
     inkscape:label="Calque 1"
     inkscape:groupmode="layer"
     id="layer1">
    <g
       id="g111"
       transform="translate(23.812503,-126.62202)"
       inkscape:export-xdpi="100"
       inkscape:export-ydpi="100">
      <rect
         style="opacity:0.92900002;vector-effect:none;fill:#ffffff;fill-opacity:0.92941176;stroke:none;stroke-width:0.26458332;stroke-linecap:square;stroke-linejoin:miter;stroke-miterlimit:4;stroke-dasharray:none;stroke-dashoffset:0;stroke-opacity:0.16171618;paint-order:stroke fill markers"
         id="rect103"
         width="53.721176"
         height="53.721176"
         x="-18.155186"
         y="136.31433" />
      <path
         sodipodi:nodetypes="ccccccccccscccccccccsccccccccccsscsccscsccscccssscc"
         inkscape:connector-curvature="0"
         id="path97"
         d="m 7.4448191,189.35581 c -1.484382,-0.31144 -2.852505,-1.42309 -3.601689,-2.92651 -1.070692,-2.14859 -0.824885,-4.2227 0.707249,-5.9677 2.239757,-2.55095 6.0718099,-2.54921 8.3133469,0.004 3.444716,3.92331 -0.244565,9.97609 -5.4189069,8.89045 z m -8.696721,-15.39392 -1.874269,-1.91823 0.954849,-0.82907 c 1.44536201,-1.25498 3.577107,-2.42759 5.817894,-3.20025 1.720793,-0.59336 2.46183,-0.6952 5.05883,-0.6952 2.5970019,0 3.3380389,0.10184 5.0588309,0.6952 2.295371,0.79149 4.422531,1.97396 5.824212,3.23765 l 0.96117,0.86654 -1.918478,1.90567 -1.918475,1.90567 -1.174136,-0.89623 c -2.244278,-1.7131 -3.719325,-2.18334 -6.8331239,-2.1784 -2.465728,0.004 -2.956637,0.0864 -4.365625,0.73314 -0.873125,0.4008 -2.027002,1.08041 -2.564172,1.51023 -0.537171,0.42983 -1.01639999,0.78151 -1.06495599,0.78151 -0.04856,0 -0.931703,-0.8632 -1.96255101,-1.91823 z m -7.62805,-7.59732 -1.8284551,-1.84257 0.512634,-0.57963 c 1.0085671,-1.14037 4.7247161,-3.71126 6.8331051,-4.72726 7.629979,-3.67673 16.5061619,-3.67673 24.1361389,0 2.110303,1.01692 5.824651,3.58707 6.835359,4.72975 l 0.514887,0.58212 -1.875287,1.87529 -1.87529,1.87528 -1.678381,-1.35804 c -4.601205,-3.723 -10.773106,-5.54244 -16.4390829,-4.84613 -4.204496,0.5167 -8.314775,2.23678 -11.496123,4.81093 -0.899182,0.72756 -1.674515,1.32284 -1.722963,1.32284 -0.04845,0 -0.910892,-0.82916 -1.916542,-1.84258 z m -7.2404561,-7.24032 c -1.043408,-1.05042 -1.897106,-1.97775 -1.897106,-2.06072 0,-0.30643 4.167486,-3.6472 6.205488,-4.9745 3.9733111,-2.58771 8.7442891,-4.4845 13.7801531,-5.47855 3.272706,-0.64601 10.2018429,-0.64601 13.4745509,0 5.037222,0.99432 9.809249,2.89177 13.780153,5.47927 2.168407,1.41296 6.205487,4.64504 6.205487,4.96811 0,0.10022 -0.86841,1.04483 -1.92979,2.09914 l -1.92979,1.91691 -0.78219,-0.82156 c -3.394134,-3.56498 -10.229075,-7.04639 -16.128021,-8.21489 -2.436622,-0.48266 -9.4696269,-0.48266 -11.9062499,0 -5.743788,1.13776 -11.472592,3.96722 -15.5176231,7.66415 l -1.457956,1.33249 z"
         style="fill:#000000;stroke-width:1" />
    </g>
    <g
       id="g107"
       transform="translate(86.407293,-127.75595)"
       inkscape:export-xdpi="100"
       inkscape:export-ydpi="100">
      <rect
         y="136.31433"
         x="-18.155186"
         height="53.721176"
         width="53.721176"
         id="rect101"
         style="opacity:0.92900002;vector-effect:none;fill:#ffffff;fill-opacity:1;stroke:none;stroke-width:0.26458332;stroke-linecap:square;stroke-linejoin:miter;stroke-miterlimit:4;stroke-dasharray:none;stroke-dashoffset:0;stroke-opacity:0.16171618;paint-order:stroke fill markers" />
      <path
         style="fill:#c83737;stroke-width:1"
         d="m 7.3219271,189.4 c -1.9974,-0.60143 -3.60348,-2.36998 -4.03626,-4.44458 -0.44702,-2.14286 0.97834,-4.81306 3.12357,-5.85155 4.5637099,-2.20925 9.5106199,2.73765 7.3013599,7.30136 -1.16514,2.40686 -3.9717799,3.7225 -6.3886699,2.99477 z m -0.31254,-13.29645 c -0.0662,-0.32742 -0.31427,-2.97657 -0.55114,-5.88698 -0.23687,-2.91042 -0.95883,-10.67585 -1.60436,-17.25652 -0.64554,-6.58067 -1.1737,-12.45366 -1.1737,-13.05108 0,-1.98512 1.8683,-3.15924 5.02709,-3.15924 1.9504199,0 3.4185099,0.43085 4.2994699,1.26182 0.64321,0.6067 0.72761,0.87848 0.72761,2.34294 0,0.91115 -0.415,5.8002 -0.92223,10.86456 -1.12514,11.23385 -1.89445,19.4643 -2.14052,22.90012 l -0.18475,2.57969 H 8.8083571 c -1.52859,0 -1.68926,-0.0532 -1.79897,-0.59531 z m -8.21455,-2.04107 c -1.81626,-1.83028 -1.82512,-1.84626 -1.3284,-2.39513 1.2384,-1.36842 4.70091,-3.24361 7.10206,-3.84626 0.71685,-0.17992 0.76124,-0.0346 1.09774,3.59369 l 0.16021,1.72744 -1.00698,0.3558 c -0.55384,0.19568 -1.69025,0.81732 -2.52535,1.38141 -0.8351,0.5641 -1.55266001,1.02562 -1.59459001,1.02562 -0.0419,0 -0.89903999,-0.82915 -1.90468999,-1.84257 z m 17.1727999,1.29609 c -0.27201,-0.30057 -1.36554,-0.96541 -2.43007,-1.47743 -1.87999,-0.90424 -1.93181,-0.95498 -1.80616,-1.76862 0.0711,-0.46072 0.20398,-1.64856 0.29518,-2.63963 l 0.16582,-1.80196 0.83712,0.16841 c 1.92428,0.38713 5.26162,2.24498 7.43563,4.13931 0.22788,0.19857 -3.40505,3.9264 -3.82645,3.9264 -0.0971,0 -0.39906,-0.24591 -0.67107,-0.54648 z m -24.8406399,-8.96401 c -2.1247401,-2.14114 -2.1846001,-1.88296 0.99146,-4.27619 3.17781,-2.39456 7.322,-4.28656 11.20654,-5.11629 0.96938,-0.20705 1.00453,-0.11631 1.30084,3.35859 0.16094,1.8873 0.13553,2.0508 -0.31925,2.05406 -0.95265,0.007 -4.87493,1.53269 -6.64464,2.58493 -0.98283,0.58438 -2.34102,1.55072 -3.01819,2.14743 -0.67718,0.59671 -1.33521,1.08493 -1.46231,1.08493 -0.12709,0 -1.05159,-0.82685 -2.05445,-1.83746 z m 31.4880299,0.50938 c -1.99909,-1.65304 -5.57927,-3.48686 -8.05004,-4.12335 l -1.92135,-0.49495 0.13693,-1.194 c 0.0753,-0.6567 0.21069,-1.88231 0.30084,-2.72358 l 0.16391,-1.52957 0.97213,0.1779 c 1.53832,0.28153 4.79603,1.39329 6.52837,2.22794 2.88858,1.39174 7.27604,4.61418 7.27604,5.34402 0,0.30172 -3.38739,3.6534 -3.66756,3.62889 -0.0929,-0.008 -0.87556,-0.59911 -1.73927,-1.3133 z m -38.72316,-7.7442 -1.91125,-1.92409 1.25864,-1.20796 c 4.27511,-4.10298 10.8307501,-7.54586 17.0839801,-8.97215 1.50153,-0.34248 2.6906,-0.49313 2.82012,-0.35729 0.12316,0.12917 0.3085,1.39572 0.41185,2.81455 0.17754,2.43727 0.15971,2.57968 -0.32289,2.57968 -0.92814,0 -4.67357,1.085 -6.83719,1.98063 -3.4647,1.43422 -7.1846301,3.79487 -9.6571201,6.12838 l -0.9349,0.88233 z m 46.27641,0.57908 c -1.7045,-1.58955 -4.56226,-3.55202 -6.86355,-4.7133 -2.03286,-1.02584 -6.58296,-2.56206 -8.33984,-2.81574 l -1.28301,-0.18525 0.16435,-1.48738 c 0.37826,-3.42322 0.47781,-4.00092 0.68941,-4.00092 0.12235,0 1.08334,0.18109 2.13553,0.40242 4.6734,0.98308 10.03808,3.33811 13.86329,6.08582 2.60862,1.8738 4.89573,3.8108 4.89573,4.14628 0,0.26954 -3.45483,3.92435 -3.69367,3.90747 -0.0785,-0.006 -0.78424,-0.60828 -1.56824,-1.33941 z"
         id="path99"
         inkscape:connector-curvature="0"
         sodipodi:nodetypes="csccccscsscssccsccscscccscsscscccsscccccccscccccccccsccccccccsccccccccccccsccc" />
    </g>
    <rect
       style="opacity:0.92900002;vector-effect:none;fill:#ff0000;fill-opacity:0.92941176;stroke:none;stroke-width:0.26458332;stroke-linecap:square;stroke-linejoin:miter;stroke-miterlimit:4;stroke-dasharray:none;stroke-dashoffset:0;stroke-opacity:0.16171618;paint-order:stroke fill markers"
       id="rect132"
       width="53.721176"
       height="53.721176"
       x="-134.19388"
       y="19.519691" />
  </g>
</svg>
